<?xml version="1.0" encoding="UTF-8" ?>
<!DOCTYPE svg PUBLIC "-//W3C//DTD SVG 1.1//EN" "http://www.w3.org/Graphics/SVG/1.1/DTD/svg11.dtd">
<svg width="194pt" height="295pt" viewBox="0 0 194 295" version="1.1" xmlns="http://www.w3.org/2000/svg">
<path fill="#000000" d=" M 114.40 28.43 C 127.17 27.28 140.32 30.08 151.32 36.73 C 164.50 44.57 174.39 57.58 178.75 72.25 C 181.80 80.84 181.81 90.08 181.17 99.06 C 178.96 114.45 170.97 129.08 158.62 138.64 C 142.67 151.46 120.45 155.82 100.82 150.16 C 81.09 145.13 66.10 128.11 59.81 109.23 C 55.27 93.90 55.82 76.62 63.33 62.30 C 72.69 42.99 93.12 29.92 114.40 28.43 Z" />
<path fill="#fdfdfd" d=" M 109.36 37.40 C 121.36 35.25 134.07 37.32 144.72 43.25 C 159.22 50.81 170.04 65.32 172.43 81.58 C 173.82 92.66 172.58 104.35 167.20 114.28 C 160.03 128.81 146.06 140.13 130.00 143.05 C 116.51 145.90 102.06 142.86 90.50 135.46 C 78.17 128.18 69.41 115.53 66.32 101.61 C 63.60 88.49 66.09 74.48 73.03 63.02 C 80.73 49.81 94.22 39.98 109.36 37.40 Z" />
<path fill="#ff3a19" d=" M 94.17 67.30 C 95.93 57.48 106.15 50.23 116.00 51.72 C 123.57 52.74 130.23 58.37 132.33 65.74 C 132.68 67.11 132.94 68.50 133.10 69.90 C 133.87 79.38 126.97 88.62 117.72 90.69 C 117.03 90.80 115.67 91.01 114.99 91.12 C 111.42 90.94 107.86 90.39 104.47 89.22 C 103.26 88.48 102.10 87.66 101.01 86.76 C 95.48 82.10 92.56 74.43 94.17 67.30 Z" />
<path fill="#fe9a18" d=" M 137.76 64.90 C 138.37 59.58 144.55 55.53 149.45 58.45 C 155.28 61.12 154.56 70.67 148.43 72.48 C 144.20 74.21 140.05 71.32 137.92 67.79 C 137.88 67.07 137.80 65.63 137.76 64.90 Z" />
<path fill="#fdfdfd" d=" M 109.36 59.46 C 116.59 56.72 125.58 62.12 125.82 70.01 C 126.94 77.28 120.37 84.45 113.03 83.85 C 105.96 83.95 100.01 76.94 100.82 70.01 C 101.43 65.31 104.75 60.85 109.36 59.46 Z" />
<path fill="#fdfdfd" d=" M 144.46 61.37 C 147.80 60.19 151.18 64.16 149.32 67.21 C 148.03 69.94 143.88 69.96 142.34 67.50 C 140.81 65.41 141.99 62.09 144.46 61.37 Z" />
<path fill="#d3d3d3" d=" M 132.33 65.74 C 134.11 65.32 135.93 65.04 137.76 64.90 C 137.80 65.63 137.88 67.07 137.92 67.79 L 138.07 68.85 C 136.41 69.20 134.75 69.55 133.10 69.90 C 132.94 68.50 132.68 67.11 132.33 65.74 Z" />
<path fill="#d3d3d3" d=" M 94.73 96.04 C 96.52 92.75 98.54 89.59 101.01 86.76 C 102.10 87.66 103.26 88.48 104.47 89.22 C 102.80 92.24 101.01 95.18 99.19 98.11 C 97.71 97.40 96.25 96.66 94.73 96.04 Z" />
<path fill="#fdfdfd" d=" M 104.47 89.22 C 107.86 90.39 111.42 90.94 114.99 91.12 C 116.09 95.93 116.89 100.81 117.18 105.73 C 114.37 106.95 111.83 108.75 109.75 110.99 C 107.29 110.17 104.83 109.35 102.38 108.49 C 101.90 104.88 100.81 101.38 99.19 98.11 C 101.01 95.18 102.80 92.24 104.47 89.22 Z" />
<path fill="#d3d3d3" d=" M 114.99 91.12 C 115.67 91.01 117.03 90.80 117.72 90.69 C 118.92 95.50 119.66 100.41 120.23 105.33 C 119.20 105.40 118.19 105.54 117.18 105.73 C 116.89 100.81 116.09 95.93 114.99 91.12 Z" />
<path fill="#ff42ff" d=" M 82.49 100.48 C 84.92 96.40 90.26 94.53 94.73 96.04 C 96.25 96.66 97.71 97.40 99.19 98.11 C 100.81 101.38 101.90 104.88 102.38 108.49 C 101.61 109.71 100.84 110.94 100.03 112.14 C 96.81 117.52 88.44 118.35 84.09 113.91 C 80.43 110.55 79.72 104.62 82.49 100.48 Z" />
<path fill="#fdfdfd" d=" M 88.39 101.13 C 92.36 98.71 98.13 102.17 97.21 106.93 C 96.91 111.51 90.71 113.64 87.51 110.51 C 84.58 108.11 84.95 102.87 88.39 101.13 Z" />
<path fill="#1a46fe" d=" M 120.23 105.33 C 128.43 104.67 135.86 112.86 134.23 120.95 C 132.99 128.47 124.70 134.12 117.30 131.65 C 110.30 129.87 106.34 122.04 107.86 115.20 C 108.38 113.75 109.01 112.34 109.75 110.99 C 111.83 108.75 114.37 106.95 117.18 105.73 C 118.19 105.54 119.20 105.40 120.23 105.33 Z" />
<path fill="#d3d3d3" d=" M 100.03 112.14 C 100.84 110.94 101.61 109.71 102.38 108.49 C 104.83 109.35 107.29 110.17 109.75 110.99 C 109.01 112.34 108.38 113.75 107.86 115.20 C 105.06 114.73 102.43 113.63 100.03 112.14 Z" />
<path fill="#fdfdfd" d=" M 117.38 111.30 C 123.31 108.06 131.07 114.38 128.93 120.83 C 127.63 126.95 118.75 128.96 114.86 124.16 C 111.14 120.40 112.54 113.39 117.38 111.30 Z" />
<path fill="#000000" d=" M 81.03 143.39 C 85.82 145.53 90.38 148.11 94.84 150.87 C 86.65 164.98 79.13 179.47 71.15 193.70 C 66.60 191.19 61.96 188.86 57.53 186.14 C 65.59 172.02 73.55 157.83 81.03 143.39 Z" />
<path fill="#000000" d=" M 50.52 185.11 C 59.30 188.92 67.36 194.22 75.90 198.53 C 74.34 202.56 71.78 206.08 69.86 209.94 C 57.65 231.84 45.76 253.92 33.54 275.81 C 25.01 271.44 16.67 266.71 8.26 262.11 C 22.41 236.48 36.67 210.91 50.52 185.11 Z" />
</svg>
